<?xml version="1.0" encoding="utf-8"?>
<!-- Generator: Adobe Illustrator 14.0.0, SVG Export Plug-In . SVG Version: 6.00 Build 43363)  -->
<svg version="1.2" baseProfile="tiny" id="Layer_2" xmlns="http://www.w3.org/2000/svg" xmlns:xlink="http://www.w3.org/1999/xlink"
	 x="0px" y="0px" width="610px" height="786px" viewBox="0 0 610 786" xml:space="preserve">
<path fill="#EBBB1C" d="M359.363,204.922c-1.101-2.292-2.213-8.153-2.213-6.07c0,5.161-4.993-7.058-4.846-7.006
	c1.754,0.618-3.882-3.544-4.984-4.262s-1.834-3.5-1.834-3.5l-6.263-2.567c0,0,0.164,4.758,0.026,7.139s-2.155,2.555-5.893,5.429
	s-17.671,4.413-21.004,2.5s-11.896-3.688-12.775-10.708c-0.557-4.438,6.221-12.776,6.221-12.776l1.994-8.754L302,163.5
	c0,0-1.199-3.614-7.074,0s-6.336,3.424-6.336,3.424s-3.975,2.912-4.34,4.076s-2.435,1.324-2.435,1.324l-3.565,1.926
	c0,0,2.511-1.665-0.9-2.35c-3.41-0.685-3.434,1.294-3.434,1.294l-3.666,2.723c0,0-1.676-1.527-4,0.293s-3.539,2.899-5.334,3.298
	c-3.332,0.742-6.014,2.409-6.014,2.409l-3.008,4.333l1.411,0.863l5.918,2.637c0,0,3.169,1.499,4.684,2.646s7.178,6.334,7.178,6.334
	s2.499,5.691,4.499,6.439c1.999,0.748,4.729,5.93,6.267,7.081s1.636,4.334,2.399,5.667s0.696,5.097,1.681,5.714
	s-0.923,4.865,0.922,6.619s1.174,7.933,2.482,9s-0.418,4.333,0.915,8s0.42,6.147,3,8s1.379,4.863,3.677,8s2.741,4.438,3.773,8.244
	s1.095,4.165,1.8,6.566s1.273-0.849,1.75,5.689s1.645,7.118,1.333,10.5s1.601,8.003,0.843,10s-1.25,5.272-0.843,5.134
	s8.565-17.339,11.036-19.467s2.917-5.419,3.348-6.396s1.528-6.505,3.95-6.604s5.667-5,6-6.333s2-2.077,3.333-3.705
	s-1.82-4.59,4.952-2.295s6.772,2.295,6.772,2.295s2.082,2.705,0.512-3.628s-3.828-10.361-3.828-10.361l-3.833-2.972l-2.575-4.054
	c0,0,5.816,1.244,6.408,0.815s5.237-2.153,5.662-3.761s3.041-2.333,3.985-2.333s3.418-3.306,3.418-3.306s2.22-1.296,2.344-3.514
	s2.419-6.128,2.419-6.128l2.431-5.719l1.057-6.699C362.974,215.217,361.917,210.24,359.363,204.922z M330.917,218.405
	c-0.841,0.69-4.882,2.964-7.667,3.845s-13.5,0-14.249,0s-7.511-4.333-7.511-4.333s11.26,0.833,19.071,0s13.878-7.677,13.878-7.677
	S331.758,217.714,330.917,218.405z"/>
<path fill="#C79500" d="M293.03,184.083c0,0,4.554,7.167,5.054,7.167s1.619,4.333,2.893,5s3.272,3.5,4.606,3.667
	s2.336,0.333,3.418,1.083s2.582,0.917,3.582,1.75s2.506,0,3.503,1.25s5.831,2.69,6.331,2.887s1.5,0.363,1.5,0.363
	s-9.334-0.448-11.334-1.391s-6.001-0.609-7-1.109s-3.769-1.384-4.093-1.81s-0.406-1.356-0.74-3.023s-3.332-4.094-2.666-5.833
	s-3.804-6.135-3.932-6.5C294.025,187.218,293.03,184.083,293.03,184.083z"/>
<path fill="#C79500" d="M340.771,192.695c0,0,0.515,7.177-0.854,7.222s0.237,2.083-1.715,4.083s-8.285,7-8.285,7l5.833-2.083
	l2.452-1.258c0,0-0.947,1.626-2.952,3.481s-3.125,5.86-3.125,5.86l1.792-0.715c0,0,3.083,1.549,1.333,1.632s-2.5,0.333-3.5,1.333
	s-3,2.5-4.25,3s-2.416,2.5-3.583,2.5s7.083-1.119,7.083-1.119l-3,2.286c0,0-7.65-0.833-12.7,0s-15.383-1.167-15.383-1.167
	l6.509,2.886c0,0,15.965,2.577,21.491,0.513s8.043-6.99,8.424-7.54s3.642-5.191,4.525-15.525s0-16.429,0-16.429L340.771,192.695z"/>
<path fill="#C79500" d="M305.438,174.25c0,0-0.784,4.959-1.884,5.488s-1.557,3.869-2.064,4.345s-0.606,3.53-0.518,4.571
	s0.189,2.243,1.027,2.596s-3.117-1.931-3.117-2.596s-0.17-4.006,0-5.381s2.094-4.491,2.094-4.491s2.316-2.11,2.734-3.135
	S305.438,174.25,305.438,174.25z"/>
<path fill="#C79500" d="M296.927,166.329c0,0-1.388,2.263-2.001,3.5c-0.611,1.238-0.951,3.984-1.119,4.726
	c-0.17,0.742-1.13,4.44,0,5.888c1.129,1.448,2.856,3.929,3.12,4.807s0.527,1.756,0.264,0.878s-1.285-8.339-1.065-8.485
	S296.927,166.329,296.927,166.329z"/>
<path fill="#C79500" d="M286.75,174c0,0,3.146,2.555,1.84,5.875c-1.305,3.32-0.402,3.696,0.745,6.617s0.556,2.464,2.448,5.354
	c1.892,2.889,2.978,3.607,3.499,4.738s3.525,4,3.525,4l-8.558-8.706c0,0-2.875-4.564-3.5-5.386s-0.475-5.937-0.819-6.617
	S286.75,174,286.75,174z"/>
<path fill="#C79500" d="M282.922,184.583c0,0,0.525,7.577,0.313,8.446s2.708,3.949,3.913,5.701s0.954,1.66,3.102,2.771
	s1.781,2.141,4.676,2.5c2.896,0.359,5.774,1.749,5.774,1.749s-2.863-4.508-3.773-4.249s-3.573-2.277-5.116-3.67
	c-1.541-1.393-4.996-1.417-5.823-3.747s-1.491-3.23-1.737-5.833S282.922,184.583,282.922,184.583z"/>
<path fill="#C79500" d="M281.851,198.77c0,0-0.069,5.275,0.429,8.48s1.736,4.788,2.096,7.967c0.358,3.18,1.143,3.57,2.773,5.699
	s1.167,2.549,3.102,5s0.051,1.108,3.015,4.333s5.354,4.576,5.543,5.391s2.683,1.275,2.683,1.275l2.221,0.361l1.872,0.881
	c0,0-6.361,1.134-8.283-1.242s-2.146-5.269-4.27-5.356s-3.363-2.661-4.44-3.864c-1.076-1.203-0.224-1.827-1.441-2.946
	s-2.898-4.167-2.898-5.5s-1.438-3.884-1.328-5.472s-2.445-6.167-2.445-8.029s-0.426-6.004,0-7.02S281.851,198.77,281.851,198.77z"/>
<path fill="#C79500" d="M257.584,181.582c1.201,0.207,2.47,0.34,3.864,1.187s2.813,2.981,2.813,2.981s1.492,1.425,2.322,2.5
	c0.829,1.075,0.176,2.538,1.647,3.595s1.783,4.314,2.794,4.738c1.01,0.424,0.693,0.077,1.792,1.705s1.777,1.748,2.024,3.211
	s0.398,2.609,0.908,3.338s0.021-3.561,0-3.838s0.133-3.854-0.166-4.417c-0.301-0.562-0.211-1.092-0.713-1.417
	c-0.503-0.325-3.632-2.73-4.621-3.879s-2.586-2.796-3.185-4.031s-2.022-1.646-2.366-2.005s-1.445-2.852-2.348-2.667
	C261.448,182.769,257.584,181.582,257.584,181.582z"/>
<path fill="#C79500" d="M252.066,185.397c0,0,1.635,0.391,2.453,0.853s0.483,1.422,1.51,2s1.515-0.296,2.758,0.404
	c1.242,0.7,0.994,0.49,2.004,1.346c0.62,0.526,1.762,0.492,2.707,0.831c0.592,0.211,1.105,0.569,1.367,1.301
	c0.681,1.901,3.287,2.147,3.176,3.035s0.763,2.659,1.376,2.664s1.925,1.683,2.794,3.17c0.87,1.487,1.521,2.243,2.155,3.228
	c0,0,0.53-2.068-0.45-3.228s-1.422-1.275-2.45-3.17s-0.569-2.269-2.049-3.29s-1.782-2.981-3.167-2.695s-4.898-2.493-6.066-3.191
	c-1.166-0.698-1.641-2.42-2.6-2.163c-0.96,0.258-0.231-0.983-1.701-1.242C254.412,184.992,252.066,185.397,252.066,185.397z"/>
<path fill="#C79500" d="M300.7,244.583c0,0,1.271,8.283,3.55,8.305s2.495,4.772,3.513,7.028c0.729,1.614,2.949,4.358,4.021,6.504
	c0.426,0.852,0.671,1.608,0.569,2.163c-0.357,1.951,1.311,5.167,1.441,8.704s0.37,9.014,1.455,12.629s1.369-2.66,1.369-2.66
	s2.148-7.52,0.558-8.007s-2.869-6.593-3.382-7.333s-3.905-12.269-4.563-13.682s-2.266-3.36-2.806-5.5s-1.964-4.572-2.715-6.057
	C302.959,245.193,300.7,244.583,300.7,244.583z"/>
<path fill="#C79500" d="M309.231,247.917c0,0,1.688,6.937,3.352,8.667s3.192,6.23,4.036,8s-0.987,3.09,1.445,5.951
	s2.665,5.435,2.592,7.075s0.442,4.011,0.442,4.011l2.151-4.529l0.667-3.341c0,0,0.344-3.901,0-5.167s-5.531-5.777-6.153-8.667
	s-2.757-5.354-3.969-7.677S309.231,247.917,309.231,247.917z"/>
<path fill="#C79500" d="M344.975,266.878c0,0-8.361,1.026-9.725,1.705s-5.685,5.392-7.368,6.875
	c-1.496,1.318-5.599,3.859-7.37,6.899c-0.222,0.38-0.406,0.769-0.545,1.164c-1.249,3.549-6.172,7.518-6.172,7.518l12.122-19.123
	l3.468-3.333l3.865-5.333c0,0,1.387-3.744,3.091-2.732s6.984,0.458,7.11,0.834S344.975,266.878,344.975,266.878z"/>
<path fill="#C79500" d="M291.811,236.917c-0.074,1.137,2.769,8.965,3.115,11c0.348,2.035,3.846,8.146,4.991,10.718
	s5.396,7.676,5.521,9.948s2.079,7.805,2.067,10.667s0.467,7.363,0.549,8.972s0.894,8.288-0.292,11.256s-1.318,8.423-1.318,8.423
	c-1.523-0.705-2.979-20.322-2.733-21.608s-1.471-9.302-2.221-10.601s-5.467-4.6-4.563-7.88s-3.771-10.801-3.677-12.562
	s-2.496-5.562-3-8s-0.915-8-0.915-8l-1.419-6.667L291.811,236.917z"/>
<path fill="#C79500" d="M345.486,205.749c1.338-0.443,1.461,6.893,1.834,9.468s-5.681,9.533-6.549,10.699s2.042-1.048-0.621,4.333
	s-1.655,6.947-3.81,8.179s-6.424,4.448-6.424,4.448s-2.217,0.42-3.917,1.706s-2.083,2-2.083,2s0.577,2.079,5.468-0.429
	s4.51-1.756,6.494-3.747s3.452-4.298,4.739-5.13s4.305-3.41,4.356-4.694s1.858-5.066,2.346-7.833s1.364-2.419,2.624-5.5
	S345.486,205.749,345.486,205.749z"/>
<path fill="#C79500" d="M343.651,187.292c0,0,7.944,10.106,7.654,11.438s0.405,6.315,1.182,7s2.333,4.974,2.236,6.595
	s0.064,5.401,0.004,5.592s0.143,3.707-0.686,5.714s1.639-4.668,1.912-5.714s1.213-5.895,1.113-7.792s-0.194-7.136,0.007-9.125
	s0.177-3.569-2.351-4.966S343.651,187.292,343.651,187.292z"/>
<path fill="#C79500" d="M285.867,201.5l5.486,7.417c0,0,2.916,1.833,3.572,2.333c0.658,0.5,2.939,2,3.882,2s3.863-0.5,4.903,0
	c1.039,0.5,5.521,1.967,5.521,1.967s2.775,0.199,4.563,0.533s5.911-0.5,6.767,0s4.022-0.533,4.022-0.533l2.166,0.669
	c0,0-4.71,1.864-6.188,2.03s-9.461,0.635-11.561,0.442s-6.271-0.108-7.511-0.442s-4.273-1.931-4.563-2.7s-5.677-2.467-5.677-2.467
	l-2.66-3.948c0,0-4.591-5.219-4.215-6.052c0.375-0.833-0.95-3.408-1.056-4.021S285.867,201.5,285.867,201.5z"/>
<path fill="#C79500" d="M287.148,225.917c0,0,1.656,6.577,1.676,6.667s2.443,2.831,2.959,2.667c0.515-0.165,1.658,1.312,2.25,2.027
	c0.594,0.715,3.534,1.973,4.125,2.64c0.592,0.667,3.332,2,3.332,2s2.326,0.833,3.543,1.5s3.716,0.167,5.05,1.167s4.267,0.5,5.217,1
	s2.95-0.5,4.45,0s4.167,1,4.167,1s-6.567,0.167-8.617,0s-1.009,0.095-6.299,0.095s-5.868-1.12-7.085-1.607
	c-1.216-0.487-2.849-0.987-3.758-1.654c-0.908-0.667-2.51-2.5-2.876-3s-0.563-0.475-2.018-1.988s-2.222-2.366-2.601-2.788
	s-2.308-0.391-2.074-1.724C288.824,232.583,287.148,225.917,287.148,225.917z"/>
<path fill="#C79500" d="M264.918,178.579c0,0,1.41,1.062,2.072,1.864s2.113,0.709,2.427,2.325s3.068,2.434,2.842,4.253
	s2.37,1.559,1.657,2.978c-0.712,1.419,0.594,2.417,0.594,2.417l1.074-4.833c0,0,0.762-1.208-0.369-1.937s-2.299-2.359-2.799-2.878
	s-0.166-1.138-1.332-1.578c-1.168-0.44-2.334-1.257-3.5-1.682C266.416,179.083,264.918,178.579,264.918,178.579z"/>
<path fill="#C79500" d="M274.25,180.443c1.004,0.172-3.873-4.033-3.873-4.033s1.803-0.867,2.004-0.764
	c0.203,0.104,2.006,0.764,2.006,0.764l1.197,1.633l0.879,3.082l-1.953,2.958L274.25,180.443z"/>
<path fill="#C79500" d="M284.25,171c0,0,0.338,2.25-0.664,3s-0.871,1.737-1.771,2.41s-1.989,1.403-1.527,2.372
	s1.339,2.469,1.527,3.135s1.106,2.666,1.106,2.666l1.014-0.5c0,0,0.02-1.503,0-2.501s-0.68-1.84-0.35-3.002s0.811-2.615,1.111-2.933
	s1.364-0.564,1.303-1.396s-0.916-3.25-0.916-3.25H284.25z"/>
<path fill="#C79500" d="M296.125,163.5c0,0-1.83,3.171-3.095,4.25s-1.913,2.149-1.78,3.25s-0.834,2.361-1,3.556
	s-0.334,3.853,0,4.023S289.335,174,289.335,174s0.757-3.873,0.581-4.917c-0.174-1.043,0.334-1.583,0.334-1.583l-0.216-1.171
	c0,0,1.281-1.681,1.749-1.713c0.467-0.032,2.301-1.116,2.301-1.116l2.843-1.042L296.125,163.5z"/>
<path fill="#C79500" d="M357.15,220.917c-0.067,0.833-0.567,3.788-1.4,5.644s-2.858,4.023-3.263,5.356s-2.361,5-2.361,5
	s-0.896,1.299-1.634,1.513s-3.518,4.444-3.518,4.444s-2.735,2.263-2.392,0.953c0.5-1.909,2.14-3.743,2.903-4.576
	s0.764-3.333,1.764-4s2.301-3.236,3.15-3.618s1.157-1.482,2.087-2.682s0.709-2.327,2.236-3.033S357.15,220.917,357.15,220.917z"/>
<path fill="#C79500" d="M329.917,247.392c0,0-1.431,4.507-0.532,5.497s3.87,0.406,4.51,1.481s0.519,1.101,1.355,3.028
	s1.182,3.353,1.091,4.186c0,0,1.813,0.888,1.861-0.556s0.047-2.444-1.619-4.444s-2.667-3.333-3.333-4.5s-0.334-1.5-1-2.167
	s-1.333-2.667-1.333-2.667L329.917,247.392z"/>
<g>
	<path d="M302.789,177.876c-1.022,1.32-1.173,3.187-1.849,4.491c-0.858,1.567-1.995,3.805-1.006,5.794
		c4.521,7.44,12.538,8.763,19.243,9.502c5.071,0.372,9.454-2.236,14.085-3.499c1.628-0.451,2.525-1.199,3.512-2.596
		c0.568-0.699,1.6-1.74,2.477-2.188c0.299,1.541-1.309,1.334-2.208,1.611c-1.074,0.308-1.496,1.295-2.164,2.072
		c-1.158,1.527-3.345,1.566-4.845,2.267c-3.272,1.419-7.204,3.081-11.101,2.28c-1.759-0.397-3.393-0.119-5.178-0.34
		c-0.945-0.162-1.486-1.155-2.316-1.478c-0.818-0.268-2.16,0.27-2.964-0.342c0.073,0.003,0.161-0.043,0.269-0.147
		c-2.103,1.197-3.411-1.399-4.427-2.496c-1.233-1.243-2.534-2.58-3.701-4.106c-1.271-1.67-0.833-3.959,0.02-5.611
		c0.746-1.581,0.324-4.494,2.352-5.393"/>
</g>
<g>
	<path d="M284.894,201.782c0.952,1.712,2.647,3.117,3.415,4.833c1.014,2.029,1.447,4.668,3.537,6.147
		c8.459,6.17,18.5,5.162,27.5,5.426c6.357-0.538,11.166-5.533,16.101-9.11c1.853-1.197,2.371-2.664,3.231-4.595
		c0.281-1.134,1.049-2.818,1.8-3.811c0.781,1.495-0.956,2.189-1.731,3.013c-0.91,0.98-1.335,2.143-1.753,3.406
		c-0.961,2.173-3.297,3.438-5.001,4.772c-3.482,3-7.979,6.49-12.955,6.324c-2.279-0.226-4.481,0.198-6.763,0.284
		c-1.24,0.05-2.239-0.885-3.423-0.993c-1.136-0.126-2.563,0.765-3.773,0.323c0.089-0.015,0.175-0.082,0.259-0.21
		c-1.986,1.708-4.614-0.558-6.368-1.396c-2.01-0.985-4.125-2.062-6.163-3.167c-2.12-1.261-3.203-3.427-4.036-5.568
		c-0.937-2.116-3.775-3.513-3.983-5.977"/>
</g>
<g>
	<polyline points="307.763,164.616 307.763,164.616 307.763,164.616 307.763,164.616 307.763,164.616 307.763,164.616 
		307.763,164.616 307.763,164.616 307.763,164.616 307.763,164.616 307.763,164.616 307.763,164.616 307.763,164.616 
		307.763,164.616 307.763,164.616 307.763,164.616 307.763,164.616 307.763,164.616 307.763,164.616 	"/>
</g>
<g>
	<path d="M339.448,184.788c0.791,2.233,2.207,4.531,2.411,6.896c0.132,2.927-0.675,5.629-0.609,8.394
		c0.081,5.687-0.884,11.818-2.888,17.469c-1.947,5.791-7.799,10.307-14.077,10.777c-8.33,0.74-18.026,1.276-25.261-4.399
		c-2.215-2.002-3.759-3.095-5.934-5.311c-1.222-1.154-2.361-3.823-2.526-5.582c1.727,1.204,1.059,3.112,1.689,4.835
		c0.71,1.89,2.319,3.074,3.878,3.989c2.767,1.641,5.302,4.145,8.363,5.06c6.54,1.977,13.412,1.725,20.231,1.378
		c3.216-0.26,5.885-1.774,8.154-3.733c1.205-1.011,2.828-1.479,3.815-2.827c0.989-1.296,0.835-3.274,1.671-4.62
		c-0.019,0.109,0.019,0.224,0.116,0.35c-0.972-2.586,1.452-5.474,2.136-7.988c0.803-2.667,1.241-5.652,1.02-8.338
		c-0.318-2.822,0.361-5.388,0.295-8.261c0.022-2.994-2.654-5.567-2.552-8.476"/>
</g>
<g>
	<path d="M288.909,168.626c-1.869,0.481-3.013,2.068-4.481,2.655c-1.771,0.755-4.045,1.133-5.261,2.894
		c-5.144,7.246-3.774,15.691-3.72,23.181c0.253,5.495,2.982,10.285,4.541,15.148c0.599,1.693,1.468,2.597,3.029,3.485
		c0.784,0.526,2.062,1.356,2.67,2.208c-1.485,0.541-1.597-1.173-2.059-1.98c-0.437-1.094-1.481-1.433-2.381-2.058
		c-1.615-1.188-1.887-3.441-2.621-5.067c-1.62-3.522-3.429-7.718-3.157-12.009c0.116-1.973-0.421-3.703-0.575-5.632
		c-0.109-1.037,0.819-1.87,0.863-2.86c0.069-0.952-0.86-2.151-0.52-3.173c0.02,0.075,0.092,0.147,0.225,0.219
		c-1.772-1.645,0.125-3.964,0.955-5.383c0.832-1.678,1.707-3.483,2.606-5.205c0.902-1.917,2.893-2.674,4.671-3.41
		c1.789-0.631,2.983-3.516,5.511-3.042"/>
</g>
<g>
	<path d="M286.04,225.639c1.035,3.77,2.669,7.687,3.395,11.482c0.744,4.668,0.893,9.333,2.586,13.918
		c8.521,17.635,15.041,36.493,14.642,56.336c0.229,0.521-0.053,2.205-0.486,0.985c0.282-0.185,0.963-0.896,1.419-1.529
		c1.032-1.315,1.905-2.69,2.683-4.179c1.554-2.933,2.661-6.24,4.409-9.408c2.366-3.398,2.665-4.914,3.329-9.122
		c1.275-4.605,5.03-5.822,7.402-8.086c3.994-2.579,5.307-4.895,8.649-8.709c1.559-2.465,7.644-3.365,9.957-1.189
		c-2.771-0.056-5.643-1.549-8.631-0.108c-3.149,1.513-4.469,4.299-6.032,6.355c-2.993,4.15-8.194,5.39-11.072,11.131
		c-0.843,2.894-0.502,5.5-1.801,7.183c-1.537,2.315-2.729,4.87-3.791,7.365c-1.069,2.496-2.15,4.914-3.646,7.089
		c-0.75,1.028-1.592,2.187-2.447,2.978c-0.718,0.203-0.164,1.143,0.108,0.382c-0.076-0.456-0.043-1.168-0.017-1.804
		c0.374-5.12-0.876-9.476-1.406-14.207c-0.336-2.536,0.288-4.896,0.051-7.409c-0.23-2.917-2.489-4.592-2.946-7.307
		c0.082,0.157,0.205,0.27,0.375,0.337c-2.881-2.499-3.057-8.838-4.325-12.726c-1.393-4.322-3.407-8.719-5.436-12.825
		c-1.9-4.425-2.61-8.902-3.203-13.521c-0.75-4.754-3.691-9.345-3.871-14.048"/>
</g>
<g>
	<path d="M335.398,248.783c0.451,0.314,1.475,0.276,1.591,0.867c0.143,0.725-0.47,1.877,0.15,2.244
		c2.414,1.562,5.12,3.456,6.066,6.136c0.697,1.804,2.939,3.274,2.122,5.584c-0.253,0.759-0.03,1.145,0.573,1.692
		c0.323,0.292,0.454,0.889,0.296,1.31c-1.396-0.059-0.227-0.701,0.038-1.146c0.306-0.51-0.244-0.794-0.64-1.103
		c-0.721-0.553-0.032-1.544-0.245-2.228c-0.404-1.489-2.07-2.586-2.147-4.217c-0.067-0.762-0.802-1.145-1.345-1.644
		c-0.303-0.259,0.262-0.894,0.041-1.197c-0.214-0.295-1.371-0.127-1.42-0.517c0.043,0.005,0.129-0.016,0.265-0.068
		c-2.036,0.554-1.22-0.83-1.479-1.364c-0.26-0.591-0.804-1.069-1.597-1.293c-0.813-0.251-0.583-1.118-0.602-1.907
		c-0.028-0.83-1.987-0.222-1.695-1.24"/>
</g>
<g>
	<path d="M282.738,185.887c0.107,2.306,1.232,4.436,1.886,6.359c0.597,2.463,1.321,5.188,3.373,6.99
		c8.757,6.532,19.093,8.709,28.936,9.664c7.086,0.44,13.553-2.738,18.564-6.856c1.802-1.374,2.637-2.871,2.96-5.119
		c0.35-1.167,0.576-3.085,1.065-4.308c1.062,1.298-0.244,2.565-1.055,3.489c-0.847,1.154-0.88,2.485-1.422,3.767
		c-0.792,2.471-3.493,3.643-5.302,4.978c-3.987,2.937-9.676,4.993-15.16,3.986c-2.521-0.405-4.817-0.289-7.315-0.572
		c-1.325-0.205-2.256-1.298-3.501-1.631c-1.179-0.397-2.868,0.261-4.077-0.45c0.097,0.004,0.198-0.046,0.308-0.156
		c-2.35,1.268-4.821-1.399-6.602-2.563c-2.055-1.27-4.287-2.557-6.367-3.911c-2.29-1.39-3.336-3.903-4.078-6.293
		c-0.77-2.316-3.137-4.956-2.182-7.742"/>
</g>
<g>
	<path d="M285.843,174.51c-0.021,1.697,0.779,3.448,0.588,5.034c-0.177,1.93-1.075,4.042-0.271,6.009
		c3.295,7.888,9.352,13.589,15.815,17.521c4.64,2.594,10.726,2.422,15.616,4.658c1.708,0.692,3.005,0.721,4.718,0.204
		c0.921-0.279,2.284-0.493,3.062-0.661c-0.147,1.554-1.669,0.682-2.499,0.332c-1.041-0.313-2.038,0.102-3.14,0.325
		c-2.011,0.384-3.96-0.922-5.811-1.329c-3.976-0.967-8.767-1.114-12.154-3.709c-1.524-1.235-3.27-1.761-4.854-2.903
		c-0.891-0.569-0.913-1.836-1.63-2.512c-0.666-0.676-2.173-0.82-2.709-1.771c0.068,0.038,0.17,0.036,0.312-0.011
		c-2.441,0.131-2.73-2.862-3.384-4.366c-0.791-1.708-1.76-3.476-2.695-5.179c-1.069-1.812-0.691-3.868-0.406-5.794
		c0.274-1.938-1.552-4.197-0.503-6.116"/>
</g>
<g>
	<path d="M290.738,167.618c0.008,1.128,0.686,2.363,0.285,3.34c-0.379,1.204-1.507,2.44-1.233,3.784
		c1.501,5.338,4.268,9.744,6.029,14.448c1.271,3.355,4.244,5.786,4.644,9.642c0.096,1.255,0.596,1.91,1.561,2.587
		c0.49,0.406,1.111,0.963,1.301,1.64c-1.284,0.548-0.844-0.903-0.873-1.472c0.006-0.831-0.709-1.079-1.315-1.537
		c-1.052-0.867-0.826-2.517-1.408-3.687c-1.259-2.388-3.371-4.565-3.935-7.354c-0.221-1.297-1.185-2.152-1.829-3.255
		c-0.328-0.597,0.266-1.401,0.033-2.005c-0.212-0.588-1.512-0.945-1.511-1.659c0.043,0.036,0.134,0.052,0.28,0.046
		c-2.174-0.338-1.183-2.281-1.378-3.32c-0.128-1.204-0.482-2.45-1.107-3.622c-0.571-1.272,0.169-2.533,0.605-3.723
		c0.56-1.178-1.09-2.892-0.091-4.021"/>
</g>
<g>
	<path d="M297.517,189.197c-0.473-0.433-1.581-1.121-1.563-2.038c0.096-1.146,1.076-2.247,0.712-3.273
		c-1.557-4.172-2.646-9.13-0.97-13.671c0.801-2.735,2.844-7.911,7.451-7.034c1.22,0.532,1.99,0.356,3.249,0.316
		c0.664-0.012,1.703,0.404,2.209,0.878c-1.142,0.991-1.187-0.408-1.73-1.001c-0.566-0.727-1.475-0.422-2.251-0.158
		c-1.273,0.3-2.869-0.309-4.226,0.293c-2.898,1.523-3.528,4.661-4.803,6.851c-0.613,1.096-0.375,2.3-0.323,3.453
		c0.035,0.616-0.848,1.01-0.907,1.624c-0.048,0.596,1.007,1.341,0.796,1.925c-0.03-0.043-0.112-0.085-0.254-0.126
		c1.938,0.927,0.532,2.181,0.477,3.156c-0.037,1.048,0.22,2.18,0.781,3.145c0.605,1.021,0.026,2.042-0.192,3.165
		c-0.223,1.264,1.978,1.658,1.566,2.618"/>
</g>
<g>
	<path d="M291.4,168.059c-0.016-0.292-0.534-1.055-0.148-1.181c0.45-0.183,1.487,0.436,1.534,0.055
		c0.069-1.825,1.741-3.92,3.556-4.066c1.23-0.16,2.466-1.744,3.719-0.481c0.427,0.428,0.683,0.302,1.063-0.155
		c0.201-0.245,0.558-0.231,0.798,0.021c-0.131,1.341-0.442,0.055-0.673-0.307c-0.269-0.417-0.479,0.049-0.707,0.36
		c-0.413,0.568-0.928-0.339-1.359-0.296c-0.952,0.118-1.87,1.128-2.91,0.831c-0.501-0.136-0.82,0.441-1.174,0.852
		c-0.185,0.205-0.593-0.508-0.819-0.388c-0.222,0.117-0.103,1.228-0.363,1.156c0.003-0.037-0.014-0.122-0.053-0.26
		c0.464,2.038-0.414,0.967-0.784,1.114c-0.378,0.109-0.559,0.604-0.498,1.187c0.09,0.616-0.634,0.235-1.163,0.309
		c-0.613,0.094,0.812,1.461-0.071,1.273"/>
</g>
<g>
	<path d="M287.257,174.037c-0.196-0.16-1.07-0.35-0.842-0.6c0.267-0.312,1.429-0.458,1.184-0.686
		c-1.212-0.968-1.861-3.159-0.645-4.199c0.625-0.639,1.136-2.612,2.615-1.71c0.452,0.325,0.611,0.215,0.891-0.287
		c0.148-0.264,0.488-0.287,0.701-0.054c-0.07,1.357-0.351,0.091-0.619-0.243c-0.295-0.387-0.449,0.103-0.582,0.431
		c-0.229,0.562-0.851-0.122-1.239,0.031c-0.822,0.37-0.981,1.657-1.83,1.841c-0.424,0.13-0.295,0.73-0.215,1.183
		c0.03,0.226-0.72-0.079-0.782,0.121c-0.057,0.202,0.798,0.863,0.622,0.944c-0.028-0.025-0.103-0.071-0.229-0.142
		c1.794,1.069,0.458,0.765,0.331,1.037c-0.146,0.236,0.095,0.609,0.531,0.9c0.483,0.298-0.245,0.424-0.644,0.715
		c-0.432,0.336,1.533,0.449,0.724,0.753"/>
</g>
<g>
	<path d="M283.679,185.256c-0.244-0.204-1.167-0.32-1.018-0.708c0.151-0.468,1.315-0.945,0.997-1.266
		c-1.361-1.34-2.401-3.72-1.498-5.482c0.482-1.125,0.206-3.381,2.21-3.505c0.607-0.038,0.798-0.233,0.943-0.89
		c0.084-0.346,0.494-0.587,0.848-0.508c0.432,1.311-0.401,0.314-0.858,0.176c-0.51-0.17-0.513,0.391-0.554,0.788
		c-0.035,0.732-1.008,0.481-1.376,0.891c-0.696,0.927-0.469,2.345-1.274,3.095c-0.396,0.377-0.096,0.98,0.085,1.502
		c0.079,0.27-0.742,0.26-0.757,0.522c-0.016,0.256,0.998,0.732,0.801,0.925c-0.03-0.022-0.111-0.051-0.25-0.089
		c1.978,0.664,0.595,0.902,0.524,1.295c-0.095,0.394,0.157,0.839,0.683,1.171c0.572,0.334-0.18,0.732-0.472,1.195
		c-0.323,0.54,1.655,0.376,0.949,0.946"/>
</g>
<g>
	<path d="M285.01,201.345c-0.23-0.291-1.129-0.495-0.925-0.804c0.253-0.392,1.329-0.901,0.975-1.203
		c-1.438-1.167-3.135-2.291-3.109-3.884c-0.037-0.917-1.334-2.633,0.388-3.387c0.521-0.203,0.608-0.395,0.459-1.004
		c-0.068-0.321,0.195-0.644,0.527-0.655c0.877,1.056-0.213,0.363-0.67,0.369c-0.513-0.012-0.292,0.483-0.157,0.828
		c0.252,0.604-0.677,0.686-0.828,1.148c-0.228,0.982,0.678,1.961,0.246,2.755c-0.203,0.401,0.353,0.73,0.687,1.039
		c0.17,0.168-0.6,0.424-0.521,0.609c0.075,0.181,1.191,0.219,1.077,0.422c-0.036-0.007-0.123-0.005-0.267,0.008
		c2.064-0.086,0.796,0.545,0.824,0.844c0.033,0.324,0.319,0.624,0.863,0.862c0.574,0.256-0.034,0.685-0.417,1.091
		c-0.402,0.396,1.595,0.565,0.826,1.014"/>
</g>
<g>
	<path d="M339.495,184.892c0.723,0.992,2.138,1.861,2.347,3.166c0.344,1.554-0.398,3.308,0.324,4.698
		c2.781,5.748,4.764,12.453,3.943,19.118c-0.558,4.453-0.543,10.013-4.39,13.445c-1.192,1.142-1.878,1.883-2.666,3.442
		c-0.483,0.773-1.749,1.675-2.619,2.036c-0.068-1.636,1.374-1.12,2.373-1.44c1.092-0.383,1.401-1.53,1.835-2.425
		c0.614-1.711,2.433-2.762,3.114-4.384c1.557-3.423,1.523-7.359,2.425-10.904c0.352-1.691-0.017-3.239-0.331-4.846
		c-0.151-0.855,0.685-1.642,0.59-2.504c-0.098-0.838-1.248-1.646-1.157-2.524c0.038,0.055,0.126,0.096,0.272,0.123
		c-2.124-0.884-0.993-2.996-1.192-4.37c-0.228-1.496-0.753-3.047-1.611-4.333c-0.852-1.375-0.665-2.899-0.761-4.498
		c-0.14-1.7-2.618-2.352-2.562-3.998"/>
</g>
<g>
	<path d="M334.983,229.006c-0.939,0.327-1.826,1.325-2.777,1.216c-1.175-0.169-2.479-1.046-3.567-0.482
		c-4.395,2.223-8.291,5.084-12.871,6.286c-3.104,0.858-6.26,3.11-9.77,2.204c-1.151-0.254-1.881-0.234-3.014,0.27
		c-0.607,0.251-1.654,0.248-2.286,0c0.648-1.348,1.242-0.066,1.887,0.29c0.733,0.41,1.418-0.065,2.074-0.383
		c1.18-0.572,2.545,0.059,3.746-0.105c2.557-0.433,4.933-2.045,7.532-2.285c1.223-0.118,2.095-0.941,3.102-1.544
		c0.543-0.318,1.297,0.286,1.859,0.06c0.546-0.218,0.824-1.454,1.465-1.501c-0.03,0.046-0.038,0.138-0.022,0.284
		c0.144-2.188,1.963-1.278,2.907-1.526c1.052-0.298,2.129-0.78,3.079-1.499c1.021-0.745,2.204-0.409,3.395-0.095
		c1.193,0.284,2.194-1.836,3.421-1.182"/>
</g>
<g>
	<path d="M301.699,237.93c-1.285-0.106-3.12,0.296-4.258-0.769c-1.421-1.153-1.857-3.094-3.2-4.16
		c-5.718-4.478-9.957-11.656-11.743-19.071c-1.179-5.135-3.433-10.724-1.769-16.173c0.584-1.801,0.584-2.97,0.608-4.929
		c-0.129-1.053,0.705-2.733,1.293-3.637c0.86,1.514-0.756,1.943-1.423,2.912c-0.645,1.073-0.52,2.32-0.335,3.451
		c0.297,2.044-0.71,4.096-0.629,6.065c0.191,4.208,1.774,8.381,2.273,12.587c0.31,1.967,1.254,3.519,2.147,5.184
		c0.468,0.89,0.018,2.012,0.399,2.939c0.41,0.889,1.85,1.384,2.118,2.369c-0.059-0.047-0.159-0.062-0.308-0.044
		c2.295,0.306,2.221,2.885,2.952,4.332c0.97,1.445,2.108,2.981,3.646,3.842c1.479,1.042,2.223,2.47,3.376,3.901
		c1.422,1.458,3.769,0.208,5.061,1.291"/>
</g>
<g>
	<path d="M289.081,232.921c1.288,1.412,3.194,2.511,4.185,4.119c1.185,1.967,1.819,4.434,3.845,5.917
		c8.547,6.343,18.973,4.319,27.776,3.384c6.568-1.181,11.141-5.9,14.609-10.775c1.206-1.746,1.55-3.229,1.437-5.397
		c-0.011-1.154,0.093-3.041,0.399-4.252c1.243,1.163,0.011,2.434-0.573,3.477c-0.556,1.255-0.412,2.495-0.437,3.817
		c-0.177,2.392-2.142,4.196-3.427,5.816c-2.663,3.644-7.204,6.947-12.335,7.334c-2.338,0.214-4.352,0.866-6.67,1.148
		c-1.239,0.136-2.329-0.676-3.526-0.698c-1.16,0.011-2.499,0.973-3.759,0.675c0.088-0.021,0.167-0.096,0.239-0.231
		c-1.827,1.865-4.712-0.135-6.496-0.955c-2.091-0.86-4.239-1.979-6.271-3.092c-2.197-1.195-3.175-3.372-4.281-5.366
		c-1.144-2.067-4.181-2.888-4.879-5.189"/>
</g>
<g>
	<path d="M324.138,247.858c1.809-0.205,3.689-0.874,5.429-0.839c2.127,0.23,4.377,1.029,6.563,0.262
		c9.055-3.209,14.434-11.581,15.215-19.73c0.632-5.987-2.58-11.492-3.345-17.496c-0.275-2.067-0.868-3.297-1.993-5.11
		c-0.609-0.961-1.192-2.783-1.289-4.005c1.604,0.681,0.736,2.198,0.776,3.409c0.041,1.382,0.898,2.385,1.609,3.433
		c1.292,1.901,1.215,4.433,1.865,6.437c1.374,4.249,3.351,8.989,2.313,13.624c-0.589,2.066-0.257,4.043-1.116,6.013
		c-0.407,1.065-1.466,1.637-2.014,2.538c-0.592,0.82-0.438,2.406-1.291,3.255c0.023-0.085,0-0.193-0.075-0.331
		c0.478,2.414-2.664,3.561-4.321,4.226c-1.789,1.109-3.793,1.977-5.654,3.103c-2.046,0.945-4.236,0.782-6.352,0.404
		c-2.153-0.203-4.496,1.62-6.615,0.773"/>
</g>
<g>
	<path d="M339.113,183.607c1.084,1.048,2.857,1.735,3.54,3.128c0.902,1.658,0.911,3.754,2.171,5.141
		c5.044,5.63,9.634,12.472,10.629,20.439c0.662,5.29,1.41,11.848-2.315,16.509c-1.164,1.527-1.834,2.524-2.495,4.404
		c-0.463,0.926-1.608,2.249-2.488,2.886c-0.332-1.677,1.299-1.603,2.28-2.2c1.178-0.626,1.3-1.991,1.68-3.072
		c0.579-1.991,2.32-3.618,2.872-5.604c1.287-4.262,0.551-8.886,0.479-13.208c-0.129-2.047-0.955-3.722-1.778-5.463
		c-0.387-0.942,0.12-2.063-0.296-3.004c-0.399-0.917-1.712-1.526-2.01-2.513c0.06,0.05,0.162,0.069,0.313,0.056
		c-2.399-0.365-2.056-3.081-2.835-4.532c-0.75-1.63-1.987-3.14-3.268-4.383c-1.476-1.247-1.789-3.082-2.559-4.781
		c-0.741-1.829-3.559-2.112-4.056-4.016"/>
</g>
<g>
	<path d="M339.158,182.242c1.174,0.991,2.929,1.613,3.773,2.895c1.002,1.595,1.347,3.643,2.755,4.886
		c5.691,4.8,11.96,10.748,12.305,19.158c0.31,5.512-0.108,11.685-3.388,16.204c-1.158,1.488-1.464,2.672-1.906,4.5
		c-0.221,0.985-0.979,2.462-1.667,3.271c-0.761-1.479,0.857-1.828,1.634-2.569c0.9-0.848,0.973-2.032,1.121-3.171
		c0.32-2.021,1.972-3.628,2.591-5.507c1.339-4.047,1.431-8.637,1.639-13.013c0.128-2.089-0.787-3.839-1.666-5.538
		c-0.41-0.93-0.016-2.077-0.52-2.995c-0.437-0.921-1.889-1.327-2.302-2.264c0.064,0.042,0.167,0.048,0.315,0.016
		c-2.346-0.076-2.504-2.704-3.434-4.065c-1.077-1.427-2.401-2.812-3.929-3.808c-1.574-1.088-2.22-2.815-3.108-4.466
		c-0.923-1.712-3.743-1.847-4.363-3.74"/>
</g>
<g>
	<path d="M339.724,245.787c1.942-0.475,3.57-1.923,5.31-2.448c2.112-0.684,4.648-0.961,6.313-2.718
		c6.356-7.233,9.637-16.188,10.918-24.701c0.637-6.333-3.586-11.309-6.364-16.693c-0.973-1.89-2.035-2.863-3.826-4.069
		c-0.96-0.643-2.31-1.98-3.009-2.992c1.73-0.193,1.75,1.592,2.284,2.665c0.644,1.228,1.811,1.812,2.884,2.542
		c1.961,1.326,2.722,3.829,3.883,5.593c2.558,3.688,5.144,8.405,4.081,13.254c-0.422,2.175-0.446,4.153-0.948,6.37
		c-0.247,1.174-1.415,1.842-1.822,2.905c-0.42,1.018,0.024,2.595-0.711,3.602c0.009-0.088-0.034-0.188-0.136-0.305
		c1.08,2.332-1.69,4.154-2.905,5.597c-1.335,1.686-2.693,3.53-3.999,5.312c-1.39,1.923-3.611,2.701-5.77,3.298
		c-2.112,0.613-3.967,3.292-6.502,2.814"/>
</g>
<g>
	<path d="M362.746,214.914c-0.342-1.116-1.355-2.184-1.262-3.311c0.023-1.361,0.896-2.91,0.269-4.222
		c-2.696-5.258-6.236-9.629-9.259-14.103c-2.156-3.208-5.795-5.059-7.639-8.457c-0.663-1.147-1.417-1.614-2.684-1.979
		c-0.688-0.186-1.558-0.75-2.021-1.256c1.138-0.927,1.205,0.592,1.507,1.255c0.386,0.765,1.226,0.834,2.006,1.065
		c1.418,0.441,1.896,2.125,2.831,3.034c2.026,1.954,4.804,3.729,6.078,6.516c0.598,1.273,1.702,2.019,2.63,3.047
		c0.47,0.567,0.073,1.514,0.45,2.105c0.384,0.561,1.646,0.767,1.84,1.506c-0.053-0.03-0.147-0.031-0.292,0
		c2.285-0.034,1.721,2.187,2.071,3.284c0.479,1.22,1.032,2.497,1.887,3.611c0.912,1.196,0.439,2.659,0.312,4.023
		c-0.2,1.402,1.891,2.627,1.271,4.069"/>
</g>
<g>
	<polyline points="251.25,186.25 251.25,186.25 251.25,186.25 251.25,186.25 251.25,186.25 251.25,186.25 251.25,186.25 
		251.25,186.25 251.25,186.25 251.25,186.25 251.25,186.25 251.25,186.25 251.25,186.25 251.25,186.25 251.25,186.25 251.25,186.25 
		251.25,186.25 251.25,186.25 251.25,186.25 	"/>
</g>
<g>
	<path d="M276.913,206.748c-0.526-0.833-1.684-1.418-1.781-2.332c-0.152-1.107,0.279-2.555-0.526-3.429
		c-3.484-3.331-7.401-5.594-10.604-8.423c-2.414-1.911-5.604-2.323-7.711-4.476c-0.757-0.715-1.426-1.006-2.478-0.73
		c-0.559,0.136-1.365-0.05-1.871-0.418c0.66-1.225,1.089,0.177,1.482,0.63c0.483,0.489,1.114,0.196,1.757,0.159
		c1.172-0.088,1.943,1.035,2.812,1.548c1.966,0.939,4.534,1.544,6.106,3.409c0.665,0.914,1.743,1.155,2.729,1.689
		c0.526,0.287,0.337,1.188,0.725,1.582c0.389,0.366,1.595,0.069,1.885,0.612c-0.053-0.007-0.139,0.025-0.266,0.101
		c2.05-0.801,1.959,1.164,2.434,1.951c0.569,0.876,1.462,1.599,2.399,2.25c0.999,0.708,0.922,1.978,1.044,3.087
		c-0.014,1.169,2.259,1.623,1.892,2.944"/>
</g>
<g>
	<path d="M252.459,186.003c0.021-0.413-0.553-1.325-0.062-1.581c0.614-0.324,1.715,0.139,1.849-0.315
		c0.45-2.249,3.985-3.931,6.526-2.732c1.639,0.658,4.407,0.691,4.84,3.121c0.127,0.761,0.403,1.032,1.178,1.343
		c0.393,0.185,0.668,0.797,0.607,1.244c-1.378,0.239-0.361-0.617-0.244-1.18c0.138-0.614-0.519-0.705-0.981-0.845
		c-0.869-0.193-0.68-1.385-1.267-1.838c-1.234-0.998-3.019-0.97-4.209-1.917c-0.599-0.442-1.372-0.125-2.052,0.065
		c-0.355,0.101-0.548-0.783-0.935-0.732c-0.381,0.041-0.744,1.121-1.064,0.988c0.021-0.038,0.034-0.126,0.044-0.272
		c-0.271,2.115-0.998,0.781-1.55,0.972c-0.543,0.099-0.962,0.663-1.05,1.3c-0.038,0.709-0.792,0.446-1.471,0.671
		c-0.807,0.223,0.767,1.73-0.22,1.759"/>
</g>
<g>
	<path d="M258.627,181.006c0.348-0.537,0.306-1.845,1.074-2.038c0.999-0.282,1.92,0.635,2.387,0.314
		c2.826-1.335,7.408,2.25,9.014,5.529c1.301,2.416,3.883,4.408,3.766,7.411c-0.039,1.007,0.309,1.531,1.087,2.162
		c0.411,0.364,0.728,1.023,0.716,1.58c-1.373,0.228-0.479-0.826-0.332-1.411c0.156-0.694-0.48-0.97-0.976-1.358
		c-0.9-0.681-0.484-2.025-0.902-2.906c-0.925-1.9-2.748-3.491-3.393-5.618c-0.302-1.009-1.278-1.495-2.027-2.148
		c-0.418-0.334-0.041-1.178-0.393-1.579c-0.323-0.408-1.572-0.079-1.787-0.561c0.049,0.002,0.132-0.034,0.254-0.113
		c-1.899,0.875-1.728-0.739-2.389-1.286c-0.711-0.493-1.704-0.609-2.396-0.167c-0.633,0.572-1.26-0.067-2.264,0.064
		c-1.144,0.002-0.37,2.319-1.545,2.183"/>
</g>
<g>
	<path d="M264.35,179.577c0.081-0.365-0.29-1.249,0.173-1.406c0.579-0.178,1.551,0.316,1.742-0.039
		c0.394-2.162,3.428-3.901,5.767-2.607c1.464,0.611,4.059,1.278,3.846,3.563c-0.1,0.708,0.021,1.013,0.648,1.454
		c0.322,0.241,0.458,0.803,0.293,1.169c-1.401-0.061-0.214-0.589,0.039-1.041c0.296-0.5-0.26-0.739-0.646-0.958
		c-0.637-0.397-0.318-1.329-0.68-1.92c-0.877-1.188-2.58-1.421-3.564-2.341c-0.516-0.473-1.231-0.262-1.864,0.002
		c-0.317,0.104-0.486-0.724-0.836-0.715c-0.346,0.016-0.649,1.038-0.923,0.995c0.016-0.039,0.026-0.127,0.03-0.274
		c-0.172,2.122-0.814,0.863-1.335,0.934c-0.461,0.112-0.8,0.68-0.898,1.274c-0.104,0.593-0.787,0.307-1.412,0.414
		c-0.702,0.119,0.496,1.712-0.445,1.524"/>
</g>
<g>
	<path d="M271.289,176.655c-0.027-0.256-0.526-0.999-0.192-1.013c0.403-0.03,1.356,0.656,1.333,0.31
		c-0.194-1.536,0.542-3.558,2.073-3.685c0.831-0.15,2.461-1.411,3.062,0.227c0.151,0.526,0.33,0.55,0.867,0.343
		c0.283-0.106,0.561,0.099,0.568,0.413c-0.941,0.982-0.321-0.155-0.313-0.586c0.023-0.486-0.414-0.213-0.723-0.045
		c-0.532,0.295-0.582-0.626-0.987-0.75c-0.888-0.195-1.769,0.71-2.53,0.369c-0.408-0.169-0.644,0.419-0.844,0.812
		c-0.107,0.193-0.509-0.51-0.672-0.395c-0.158,0.121,0.108,1.163-0.073,1.125c-0.006-0.037-0.035-0.119-0.091-0.253
		c0.731,1.95-0.126,0.872-0.384,0.993c-0.252,0.092-0.318,0.511-0.188,1.023c0.156,0.55-0.468,0.157-0.954,0.081
		c-0.536-0.068,0.791,1.387,0.002,1.04"/>
</g>
<path fill="#C79500" d="M291.811,236.917c-0.074,1.137,2.769,8.965,3.115,11c0.348,2.035,3.846,8.146,4.991,10.718
	s5.396,7.676,5.521,9.948s2.079,7.805,2.067,10.667s0.467,7.363,0.549,8.972s0.894,8.288-0.292,11.256s-1.318,8.423-1.318,8.423
	c-1.523-0.705-2.979-20.322-2.733-21.608s-1.471-9.302-2.221-10.601s-5.467-4.6-4.563-7.88s-3.771-10.801-3.677-12.562
	s-2.496-5.562-3-8s-0.915-8-0.915-8l-1.419-6.667L291.811,236.917z"/>
<g>
	<path d="M286.04,225.639c1.036,3.77,2.669,7.687,3.394,11.482c0.744,4.668,0.894,9.333,2.586,13.918
		c8.522,17.635,15.042,36.493,14.642,56.336c0.229,0.521-0.053,2.205-0.486,0.985c0.282-0.185,0.963-0.896,1.419-1.529
		c1.032-1.315,1.905-2.69,2.683-4.179c1.554-2.933,2.661-6.24,4.409-9.408c2.366-3.398,2.665-4.914,3.329-9.122
		c1.275-4.605,5.03-5.822,7.402-8.086c3.994-2.579,5.307-4.895,8.649-8.709c1.559-2.465,7.644-3.365,9.957-1.189
		c-2.771-0.056-5.643-1.549-8.631-0.108c-3.149,1.513-4.469,4.299-6.032,6.355c-2.993,4.15-8.194,5.39-11.072,11.131
		c-0.843,2.894-0.502,5.5-1.801,7.183c-1.537,2.315-2.729,4.87-3.791,7.365c-1.069,2.496-2.15,4.914-3.646,7.089
		c-0.75,1.028-1.592,2.187-2.447,2.978c-0.718,0.203-0.164,1.143,0.108,0.382c-0.076-0.456-0.043-1.168-0.017-1.804
		c0.374-5.12-0.876-9.476-1.407-14.207c-0.336-2.536,0.289-4.896,0.051-7.409c-0.23-2.917-2.489-4.592-2.946-7.307
		c0.082,0.157,0.205,0.27,0.375,0.337c-2.88-2.499-3.057-8.838-4.326-12.726c-1.392-4.322-3.407-8.719-5.435-12.825
		c-1.9-4.425-2.61-8.902-3.204-13.521c-0.749-4.754-3.691-9.345-3.871-14.048"/>
</g>
<g>
	<path d="M339.724,245.787c1.942-0.475,3.57-1.923,5.31-2.448c2.112-0.684,4.648-0.961,6.313-2.718
		c6.356-7.233,9.637-16.188,10.918-24.701c0.637-6.333-3.586-11.309-6.364-16.693c-0.973-1.89-2.035-2.863-3.826-4.069
		c-0.96-0.643-2.31-1.98-3.009-2.992c1.73-0.193,1.75,1.592,2.284,2.665c0.644,1.228,1.811,1.812,2.884,2.542
		c1.961,1.326,2.722,3.829,3.883,5.593c2.558,3.688,5.144,8.405,4.081,13.254c-0.422,2.175-0.446,4.153-0.948,6.37
		c-0.247,1.174-1.415,1.842-1.822,2.905c-0.42,1.018,0.024,2.595-0.711,3.602c0.009-0.088-0.034-0.188-0.136-0.305
		c1.08,2.332-1.69,4.154-2.905,5.597c-1.335,1.686-2.693,3.53-3.999,5.312c-1.39,1.923-3.611,2.701-5.77,3.298
		c-2.112,0.613-3.967,3.292-6.502,2.814"/>
</g>
<g>
	<path d="M362.746,214.914c-0.342-1.116-1.355-2.184-1.262-3.311c0.023-1.361,0.896-2.91,0.269-4.222
		c-2.696-5.258-6.236-9.629-9.259-14.103c-2.156-3.208-5.795-5.059-7.639-8.457c-0.663-1.147-1.417-1.614-2.684-1.979
		c-0.688-0.186-1.558-0.75-2.021-1.256c1.138-0.927,1.205,0.592,1.507,1.255c0.386,0.765,1.226,0.834,2.006,1.065
		c1.418,0.441,1.896,2.125,2.831,3.034c2.026,1.954,4.804,3.729,6.078,6.516c0.598,1.273,1.702,2.019,2.63,3.047
		c0.47,0.567,0.073,1.514,0.45,2.105c0.384,0.561,1.646,0.767,1.84,1.506c-0.053-0.03-0.147-0.031-0.292,0
		c2.285-0.034,1.721,2.187,2.071,3.284c0.479,1.22,1.032,2.497,1.887,3.611c0.912,1.196,0.439,2.659,0.312,4.023
		c-0.2,1.402,1.891,2.627,1.271,4.069"/>
</g>
<g>
	<path d="M276.914,206.748c-0.526-0.833-1.684-1.418-1.782-2.332c-0.151-1.107,0.28-2.555-0.526-3.429
		c-3.484-3.331-7.402-5.594-10.604-8.423c-2.414-1.911-5.604-2.323-7.711-4.476c-0.757-0.715-1.426-1.006-2.478-0.73
		c-0.559,0.136-1.365-0.05-1.872-0.418c0.661-1.225,1.089,0.177,1.483,0.63c0.483,0.489,1.114,0.196,1.757,0.159
		c1.171-0.088,1.943,1.035,2.811,1.548c1.966,0.939,4.534,1.544,6.106,3.409c0.666,0.914,1.744,1.155,2.729,1.689
		c0.527,0.287,0.337,1.188,0.725,1.582c0.389,0.366,1.595,0.069,1.885,0.612c-0.052-0.007-0.139,0.025-0.265,0.101
		c2.049-0.801,1.958,1.164,2.434,1.951c0.569,0.876,1.461,1.599,2.398,2.25c0.999,0.708,0.923,1.978,1.044,3.087
		c-0.014,1.169,2.259,1.623,1.892,2.944"/>
</g>
<g>
	<path d="M264.349,179.577c0.082-0.365-0.29-1.249,0.173-1.406c0.58-0.178,1.551,0.316,1.743-0.039
		c0.393-2.162,3.428-3.901,5.766-2.607c1.465,0.611,4.059,1.278,3.846,3.563c-0.099,0.708,0.021,1.013,0.649,1.454
		c0.322,0.241,0.458,0.803,0.292,1.169c-1.401-0.061-0.213-0.589,0.04-1.041c0.296-0.5-0.26-0.739-0.646-0.958
		c-0.637-0.397-0.319-1.329-0.679-1.92c-0.878-1.188-2.581-1.421-3.565-2.341c-0.515-0.473-1.231-0.262-1.864,0.002
		c-0.317,0.104-0.486-0.724-0.836-0.715c-0.345,0.016-0.649,1.038-0.923,0.995c0.017-0.039,0.026-0.127,0.03-0.274
		c-0.171,2.122-0.814,0.863-1.335,0.934c-0.46,0.112-0.799,0.68-0.898,1.274c-0.104,0.593-0.787,0.307-1.413,0.414
		c-0.702,0.119,0.496,1.712-0.445,1.524"/>
</g>
<g>
	<path d="M271.289,176.655c-0.027-0.256-0.526-0.999-0.192-1.013c0.403-0.03,1.356,0.656,1.333,0.31
		c-0.194-1.536,0.542-3.558,2.073-3.685c0.831-0.15,2.461-1.411,3.063,0.227c0.15,0.526,0.33,0.55,0.867,0.343
		c0.283-0.106,0.56,0.099,0.567,0.413c-0.94,0.982-0.32-0.155-0.313-0.586c0.023-0.486-0.414-0.213-0.723-0.045
		c-0.532,0.295-0.582-0.626-0.988-0.75c-0.887-0.195-1.768,0.71-2.529,0.369c-0.409-0.169-0.644,0.419-0.844,0.812
		c-0.108,0.193-0.509-0.51-0.672-0.395c-0.158,0.121,0.108,1.163-0.074,1.125c-0.006-0.037-0.035-0.119-0.09-0.253
		c0.731,1.95-0.126,0.872-0.384,0.993c-0.252,0.092-0.318,0.511-0.188,1.023c0.156,0.55-0.468,0.157-0.955,0.081
		c-0.536-0.068,0.791,1.387,0.002,1.04"/>
</g>
<g>
	<path d="M265.634,189.101c0.348,0.157,1.252-0.061,1.268,0.376c0.021,0.536-0.695,1.531-0.205,1.7
		c2.028,0.693,4.141,1.702,5.026,3.269c0.605,1.122,2.554,1.468,2.112,3.142c-0.148,0.586,0.102,0.765,0.689,0.865
		c0.314,0.053,0.489,0.378,0.403,0.729c-1.201,0.595-0.282-0.372-0.096-0.767c0.213-0.46-0.293-0.403-0.679-0.446
		c-0.705-0.078-0.189-0.982-0.441-1.324c-0.553-0.744-1.9-1.183-1.988-2.273c-0.036-0.515-0.732-0.587-1.21-0.835
		c-0.25-0.132,0.328-0.716,0.159-0.896c-0.164-0.175-1.236,0.178-1.241-0.103c0.038-0.004,0.119-0.037,0.248-0.102
		c-1.916,0.806-1.031-0.382-1.212-0.726c-0.183-0.386-0.656-0.618-1.295-0.669c-0.681-0.048-0.343-0.752-0.243-1.36
		c0.095-0.64-1.712,0.196-1.307-0.645"/>
</g>
<g>
	<path d="M301.419,248.461c0.808,0.3,2.362,0.734,2.867,1.836c0.628,1.355,0.313,3.11,1.29,4.21
		c3.87,4.613,7.501,9.951,9.136,15.902c1.12,4.072,3.633,8.306,2.519,12.849c-0.388,1.5-0.272,2.43-0.039,4.035
		c0.25,0.839-0.324,2.322-0.78,3.088c-1.04-1.262,0.463-1.645,1-2.501c0.511-0.917,0.208-1.942-0.087-2.837
		c-0.537-1.616,0.295-3.36,0.056-4.931c-0.503-3.353-2.179-6.561-2.69-9.923c-0.191-1.601-1.223-2.739-1.93-4.077
		c-0.401-0.706,0.092-1.649-0.23-2.383c-0.312-0.712-1.617-1.081-1.808-1.882c0.053,0.037,0.149,0.046,0.297,0.026
		c-2.284-0.149-1.72-2.417-2.264-3.589c-0.542-1.311-1.458-2.552-2.517-3.534c-1.179-0.996-1.204-2.513-1.688-3.904
		c-0.492-1.589-2.97-1.327-3.236-2.512"/>
</g>
<g>
	<path d="M321.853,279.191c-0.183-0.857-1.039-1.756-0.79-2.561c0.34-0.987,1.438-2.017,1.021-3.042
		c-1.525-4.146-3.854-7.673-5.125-11.44c-0.86-2.692-3.437-4.674-3.428-7.723c0.015-1.049-0.409-1.554-1.229-2.202
		c-0.442-0.345-0.807-1.113-0.821-1.713c1.408-0.181,0.516,0.921,0.421,1.545c-0.109,0.724,0.554,1.013,1.084,1.383
		c0.956,0.675,0.564,2.075,1.01,2.952c0.907,1.901,2.745,3.637,2.973,5.904c0.112,1.044,0.985,1.707,1.484,2.595
		c0.279,0.473-0.367,1.139-0.182,1.621c0.169,0.468,1.41,0.727,1.377,1.299c-0.041-0.028-0.13-0.038-0.275-0.03
		c2.133,0.215,1.035,1.803,1.166,2.635c0.19,0.942,0.455,1.933,1.046,2.84c0.604,0.976,0.062,1.98-0.423,2.961
		c-0.458,0.991,1.489,2.14,0.66,3.113"/>
</g>
<g>
	<path d="M322.011,248.229c0.271,0.588,1.215,1.13,1.059,1.789c-0.191,0.807-1.247,1.674-0.848,2.4
		c1.642,2.96,3.239,6.084,3.516,9.243c0.17,2.221,1.891,4.329,0.909,6.625c-0.344,0.789-0.166,1.269,0.366,1.943
		c0.285,0.36,0.343,1.024,0.139,1.484c-1.368-0.176-0.144-0.815,0.172-1.267c0.363-0.525-0.146-0.892-0.501-1.292
		c-0.65-0.725,0.154-1.695,0.027-2.458c-0.285-1.646-1.383-3.369-1.085-5.15c0.149-0.834-0.487-1.495-0.839-2.252
		c-0.186-0.403,0.572-0.848,0.48-1.256c-0.088-0.396-1.226-0.717-1.126-1.156c0.038,0.025,0.126,0.04,0.271,0.045
		c-2.099-0.322-0.829-1.448-0.87-2.12c-0.032-0.746-0.375-1.508-0.96-2.165c-0.622-0.697-0.036-1.485,0.294-2.294
		c0.342-0.844-1.701-1.361-0.99-2.225"/>
</g>
<g>
	<path d="M337.85,263.178c-0.22-0.446-1.11-0.849-0.896-1.271c0.286-0.517,1.355-1.184,0.943-1.688
		c-1.597-2.036-3.632-3.257-4.587-4.872c-0.689-1.231-2.711-1.241-2.623-3.068c0.025-0.649-0.322-0.759-0.943-0.748
		c-0.337,0.011-0.608-0.278-0.628-0.652c1.038-0.856,0.402,0.321,0.324,0.753c-0.083,0.505,0.415,0.341,0.826,0.31
		c0.758-0.058,0.416,1,0.746,1.308c0.675,0.684,2.178,0.984,2.301,2.176c0.04,0.541,0.807,0.603,1.239,0.939
		c0.242,0.177-0.385,0.722-0.235,0.92c0.141,0.191,1.281,0.016,1.255,0.327c-0.038-0.005-0.123,0.012-0.262,0.052
		c2.031-0.404,0.962,0.734,1.065,1.129c0.151,0.465,0.442,0.918,1.025,1.316c0.607,0.436,0.062,1.047-0.365,1.58
		c-0.417,0.522,1.576,1.008,0.788,1.562"/>
</g>
<g>
	<path d="M302.164,179.974c-0.095-0.202-0.77-0.75-0.456-0.806c0.386-0.07,1.467,0.386,1.302,0.069
		c-0.687-1.332-0.729-3.203,0.141-3.825c0.593-0.384,0.427-2.176,1.722-1.4c0.437,0.254,0.511,0.077,0.488-0.424
		c-0.013-0.268,0.189-0.355,0.44-0.201c0.578,1.209-0.207,0.167-0.514-0.082c-0.352-0.288-0.238,0.176-0.203,0.507
		c0.068,0.602-0.655-0.041-0.859,0.113c-0.451,0.34-0.38,1.541-1.127,1.479c-0.357-0.013-0.216,0.559-0.204,0.966
		c0.003,0.205-0.615-0.3-0.685-0.156c-0.069,0.141,0.604,1.028,0.414,1.02c-0.019-0.031-0.074-0.097-0.173-0.202
		c1.36,1.552,0.19,0.787,0.014,0.934c-0.199,0.125-0.104,0.506,0.196,0.945c0.336,0.466-0.321,0.235-0.82,0.222
		c-0.528,0.015,1.127,1.039,0.282,0.851"/>
</g>
<g>
	<path d="M301.061,218.981c1.198,0.312,2.699,0.074,3.715,0.712c1.221,0.83,2.168,2.373,3.7,2.587
		c6.226,0.649,12.459,0.409,17.855-0.912c4.163-1.206,5.284-4.637,7.325-8.009c0.802-1.16,0.861-2.122,0.683-3.552
		c-0.094-0.764,0.12-2.016,0.51-2.752c1.199,0.947-0.212,1.541-0.697,2.227c-0.578,0.776-0.286,1.638-0.146,2.514
		c0.194,1.574-1.136,2.813-1.647,3.989c-0.874,2.459-2.969,5.308-6.23,5.591c-1.424,0.128-2.604,0.859-4.048,1.168
		c-0.774,0.181-1.453-0.613-2.192-0.621c-0.714,0.029-1.599,1.063-2.389,0.805c0.057-0.028,0.11-0.108,0.162-0.248
		c-1.239,1.955-2.976,0.249-4.174-0.038c-1.368-0.335-2.869-0.5-4.346-0.451c-1.574,0.04-2.685-1.043-3.84-1.987
		c-1.198-0.931-3.424,0.206-4.412-1.132"/>
</g>
</svg>
